<?xml version="1.0" encoding="UTF-8"?>
<!DOCTYPE svg PUBLIC "-//W3C//DTD SVG 1.1//EN" "http://www.w3.org/Graphics/SVG/1.1/DTD/svg11.dtd">
<svg xmlns="http://www.w3.org/2000/svg" version="1.1" width="3734px" height="2710px" style="shape-rendering:geometricPrecision; text-rendering:geometricPrecision; image-rendering:optimizeQuality; fill-rule:evenodd; clip-rule:evenodd" xmlns:xlink="http://www.w3.org/1999/xlink">
<g><path style="opacity:0.997" fill="#f8b040" d="M 2221.5,56.5 C 2466.59,51.298 2705.92,85.798 2939.5,160C 3032.17,189.84 3119.84,230.174 3202.5,281C 3268,322.154 3325.17,372.987 3374,433.5C 3457.21,540.977 3489.54,662.31 3471,797.5C 3469.74,805.321 3467.9,812.988 3465.5,820.5C 3444.48,744.47 3412.64,673.47 3370,607.5C 3298.77,504.106 3204.93,428.606 3088.5,381C 3000.71,345.97 2909.71,323.97 2815.5,315C 2724.26,304.989 2632.92,303.989 2541.5,312C 2481.46,317.178 2423.46,330.845 2367.5,353C 2330.06,368.451 2297.56,390.951 2270,420.5C 2236.49,461.37 2221.16,508.37 2224,561.5C 2226.66,602.465 2235.33,642.131 2250,680.5C 2268.62,727.743 2290.96,773.076 2317,816.5C 2352.55,874.044 2391.22,929.378 2433,982.5C 2491.68,1055.86 2553.35,1126.86 2618,1195.5C 2677.18,1262.54 2730.51,1333.88 2778,1409.5C 2825.4,1484.97 2861.4,1565.64 2886,1651.5C 2937.75,1848.8 2899.08,2025.8 2770,2182.5C 2704.89,2257.97 2630.39,2322.14 2546.5,2375C 2488.98,2411.51 2428.48,2442.68 2365,2468.5C 2364.5,2468.17 2364,2467.83 2363.5,2467.5C 2395.29,2406.58 2422.13,2343.58 2444,2278.5C 2462.25,2222.91 2472.92,2165.91 2476,2107.5C 2478.5,2020.49 2458.83,1938.82 2417,1862.5C 2386.4,1807.97 2350.4,1757.3 2309,1710.5C 2283.75,1682.52 2257.91,1655.02 2231.5,1628C 2204.83,1602.67 2178.17,1577.33 2151.5,1552C 2085.13,1493.29 2018.46,1434.96 1951.5,1377C 1863.77,1298.27 1779.6,1215.77 1699,1129.5C 1630.9,1055.9 1569.57,977.237 1515,893.5C 1480.5,839.495 1451.5,782.495 1428,722.5C 1398.24,646.246 1385.24,567.246 1389,485.5C 1392.06,443.649 1404.73,404.983 1427,369.5C 1457.95,322.876 1496.12,283.043 1541.5,250C 1620.24,194.801 1705.91,153.134 1798.5,125C 1903.22,92.6565 2010.22,71.9898 2119.5,63C 2153.62,60.2426 2187.62,58.0759 2221.5,56.5 Z"/></g>
<g><path style="opacity:0.997" fill="#ee4137" d="M 1359.5,264.5 C 1360.68,264.281 1361.68,264.614 1362.5,265.5C 1252.17,464.879 1245.67,667.546 1343,873.5C 1377.49,943.864 1418.49,1009.86 1466,1071.5C 1519.08,1138.94 1576.25,1203.11 1637.5,1264C 1689.64,1314.14 1742.97,1362.81 1797.5,1410C 1873.56,1471.05 1947.56,1534.71 2019.5,1601C 2089.88,1666.8 2155.04,1736.97 2215,1811.5C 2252.26,1858.78 2285.59,1908.78 2315,1961.5C 2338.56,2004.2 2356.23,2049.2 2368,2096.5C 2377.29,2134.69 2376.63,2172.69 2366,2210.5C 2340.23,2310.86 2287.73,2394.03 2208.5,2460C 2139.55,2514.82 2062.89,2556.15 1978.5,2584C 1874.73,2617.82 1768.4,2638.82 1659.5,2647C 1593.26,2652.15 1526.93,2653.81 1460.5,2652C 1313.78,2647.09 1168.12,2632.09 1023.5,2607C 917.586,2588.36 814.253,2560.36 713.5,2523C 621.662,2488.94 537.328,2442.27 460.5,2383C 404.24,2338.43 357.74,2285.6 321,2224.5C 256.862,2111.87 239.862,1992.54 270,1866.5C 319.209,2086.2 445.376,2244.03 648.5,2340C 749.498,2385.67 855.498,2409.67 966.5,2412C 1037,2415.47 1107.33,2413.47 1177.5,2406C 1242.14,2399.26 1304.47,2383.59 1364.5,2359C 1403.67,2342.14 1437.5,2317.97 1466,2286.5C 1503.39,2238.96 1518.06,2184.96 1510,2124.5C 1503.4,2077.02 1489.73,2031.69 1469,1988.5C 1438.53,1925.51 1402.53,1866.17 1361,1810.5C 1288.47,1714.97 1209.81,1624.31 1125,1538.5C 1061.85,1471.04 1005.18,1398.71 955,1321.5C 907.656,1248.47 871.322,1170.13 846,1086.5C 799.204,922.844 820.538,768.844 910,624.5C 953.767,557.041 1006.6,497.208 1068.5,445C 1156.64,371.228 1253.64,311.062 1359.5,264.5 Z"/></g>
<g><path style="opacity:0.994" fill="#f8b040" d="M 2533.5,519.5 C 2595.5,519.333 2657.5,519.5 2719.5,520C 2676.41,558.383 2653.74,606.55 2651.5,664.5C 2651.78,676.9 2653.45,689.067 2656.5,701C 2571.17,701.5 2485.83,701.667 2400.5,701.5C 2403.3,627.36 2436.63,571.86 2500.5,535C 2511.35,529.239 2522.35,524.072 2533.5,519.5 Z"/></g>
<g><path style="opacity:0.997" fill="#ee4137" d="M 2805.5,519.5 C 2928.17,519.5 3050.83,519.5 3173.5,519.5C 3175.03,564.769 3161.53,604.769 3133,639.5C 3114.76,659.373 3092.93,673.873 3067.5,683C 3005.83,683.5 2944.17,683.667 2882.5,683.5C 2882.67,820.834 2882.5,958.167 2882,1095.5C 2845.71,1171.9 2785.21,1213.57 2700.5,1220.5C 2700.33,1039.83 2700.5,859.166 2701,678.5C 2703.24,636.436 2716.57,598.436 2741,564.5C 2758.3,543.35 2779.8,528.35 2805.5,519.5 Z"/></g>
</svg>
