<svg id="Layer_1" data-name="Layer 1" xmlns="http://www.w3.org/2000/svg" viewBox="0 0 1080 1080"><defs><style>.cls-1{fill:#262261;}.cls-2{fill:#414199;}.cls-3{fill:#4d516e;}.cls-4{fill:#faaf40;}.cls-5{fill:#ee4036;}.cls-6{fill:#d11149;}.cls-7{fill:#838487;}</style></defs><path class="cls-1" d="M706.51,562.36,680.58,237a6.78,6.78,0,0,0-6.76-6.24H406.18a6.79,6.79,0,0,0-6.77,6.24l-1,12.66,19.35,24.25,2.12-27H660.12l23.17,294.41H396.7l2.83-35.93L378.19,504l-4.71,58.34a6.78,6.78,0,0,0,6.76,7.32H699.75A6.78,6.78,0,0,0,706.51,562.36ZM549.27,562H530.72a3.56,3.56,0,0,1-3.55-3.85l.36-4.62a3.57,3.57,0,0,1,3.56-3.29H548.9a3.57,3.57,0,0,1,3.56,3.29l.37,4.62A3.58,3.58,0,0,1,549.27,562Z"/><path class="cls-2" d="M708.2,577.76,681.43,247.67l25.09,314.69a6.79,6.79,0,0,1-6.76,7.32H380.24a6.79,6.79,0,0,1-6.76-7.32L378.19,504h0l-6.37,73.74a6.87,6.87,0,0,0,6.85,7.42h322.7A6.87,6.87,0,0,0,708.2,577.76Z"/><path class="cls-3" d="M574,290.56l11.41-.71a8.71,8.71,0,0,0,1.51,4.23,6.33,6.33,0,0,0,5.3,2.36,5.89,5.89,0,0,0,4-1.2,3.62,3.62,0,0,0,1.39-2.8,3.56,3.56,0,0,0-1.33-2.7q-1.32-1.19-6.14-2.25-7.89-1.77-11.25-4.71a9.49,9.49,0,0,1-3.39-7.5,10.13,10.13,0,0,1,1.73-5.65,11.55,11.55,0,0,1,5.22-4.19,24.43,24.43,0,0,1,9.54-1.52q7.45,0,11.35,2.77t4.65,8.8l-11.31.67a5.28,5.28,0,0,0-5.88-5,4.83,4.83,0,0,0-3.15.89,2.74,2.74,0,0,0-1.06,2.16,2.17,2.17,0,0,0,.88,1.67,9.8,9.8,0,0,0,4,1.42,50.81,50.81,0,0,1,11.27,3.43,11.87,11.87,0,0,1,4.95,4.31,10.93,10.93,0,0,1,1.55,5.74,12.37,12.37,0,0,1-2.06,6.89,13,13,0,0,1-5.78,4.78,23.26,23.26,0,0,1-9.35,1.63q-9.9,0-13.71-3.82a15,15,0,0,1-4.32-9.69"/><path class="cls-3" d="M613.16,290.56l11.41-.71a8.71,8.71,0,0,0,1.51,4.23,6.33,6.33,0,0,0,5.3,2.36,5.89,5.89,0,0,0,4-1.2,3.65,3.65,0,0,0,1.39-2.8,3.6,3.6,0,0,0-1.33-2.7q-1.32-1.19-6.14-2.25-7.89-1.77-11.26-4.71a9.49,9.49,0,0,1-3.39-7.5,10.15,10.15,0,0,1,1.74-5.65,11.46,11.46,0,0,1,5.21-4.19,24.51,24.51,0,0,1,9.55-1.52q7.44,0,11.35,2.77t4.65,8.8l-11.31.67a5.28,5.28,0,0,0-5.88-5,4.81,4.81,0,0,0-3.15.89,2.71,2.71,0,0,0-1.06,2.16,2.19,2.19,0,0,0,.87,1.67,9.93,9.93,0,0,0,4,1.42,50.81,50.81,0,0,1,11.27,3.43,11.87,11.87,0,0,1,5,4.31,10.93,10.93,0,0,1,1.55,5.74,12.3,12.3,0,0,1-2.07,6.89,12.92,12.92,0,0,1-5.77,4.78,23.26,23.26,0,0,1-9.35,1.63q-9.9,0-13.72-3.82a15,15,0,0,1-4.31-9.69"/><path class="cls-4" d="M331.64,215.27,289.57,374.75s143.51,10.27,253,138.14C493.54,458,420.19,378,312.1,355.85c30.44-114.69,32.28-115.51,32.28-115.51s51.4,13.55,72,40.41c-27.21-35.19-48.86-53-84.76-65.48"/><path class="cls-5" d="M238.7,425.33s166-9.27,296.44,96.64c-22.08-22.22-142.71-113-273.9-122l47.27-145.87-26.87,27S239.7,396.35,238.7,425.33"/><path class="cls-6" d="M522.8,527S419.91,473,195.06,490.61c0,0,18.2-95.51,42.14-158.84l24-23.55s-38.31,106.47-38.11,141.12c108.75,9.19,185.45,19,299.71,77.7"/><path class="cls-1" d="M345.81,273l9.42-17.21q15.76,8.52,30.9,18.52l-8.53,15.56q-5.7-3.36-11.48-6.52l-39.05,71.26q-4.77-1.33-9.6-2.57l40.11-73.21Q351.73,275.77,345.81,273Z"/><path class="cls-1" d="M376.53,301.44a67.26,67.26,0,0,1,11.22-11.61,24.62,24.62,0,0,1,10.69-5.25,11.37,11.37,0,0,1,9.2,2.25,16,16,0,0,1,5.67,8.79,35.28,35.28,0,0,1,.91,12.59A66.7,66.7,0,0,1,411,323.06a95.89,95.89,0,0,1-7.05,16,90.45,90.45,0,0,1-9.43,14.09A60,60,0,0,1,384,363.31a32.81,32.81,0,0,1-10.8,5.47,16.53,16.53,0,0,1-10.31-.32,11.94,11.94,0,0,1-7-6.36,22.9,22.9,0,0,1-1.6-11.32,60.87,60.87,0,0,1,3.44-15.16,115.94,115.94,0,0,1,7.93-17.57A121.94,121.94,0,0,1,376.53,301.44Zm-6.94,31.15a48.53,48.53,0,0,0-2.83,9.49,17.23,17.23,0,0,0,.08,7.58,6.53,6.53,0,0,0,3.92,4.48,8.19,8.19,0,0,0,6.34.07,20.7,20.7,0,0,0,6.56-4.21,47,47,0,0,0,6.28-7.13,82.34,82.34,0,0,0,5.62-8.89,89.67,89.67,0,0,0,4.68-9.91,49.37,49.37,0,0,0,2.8-9.44,21.55,21.55,0,0,0,.12-8,8.22,8.22,0,0,0-3.42-5.4,6.45,6.45,0,0,0-5.91-.84,17.75,17.75,0,0,0-6.52,4.16,51.24,51.24,0,0,0-6.65,7.81,102.08,102.08,0,0,0-6.22,10A93.38,93.38,0,0,0,369.59,332.59Z"/><path class="cls-1" d="M444.58,320.55a16,16,0,0,1,4.37,6.83,22.87,22.87,0,0,1,1.07,8,31.61,31.61,0,0,1-1.48,8.3,44.79,44.79,0,0,1-3.42,8,40.29,40.29,0,0,1-4.71,6.85,21.66,21.66,0,0,1-5.71,4.82,13.55,13.55,0,0,1-6.45,1.81,12,12,0,0,1-6.91-2.2q-4.32-2.83-8.71-5.55Q405.9,369.73,399.15,382q-4.41-2.16-8.86-4.21l38.92-71Q437,313.46,444.58,320.55Zm-19.25,29.53a12.44,12.44,0,0,0,2.86,1.54,5.11,5.11,0,0,0,3,.22,7.09,7.09,0,0,0,3.15-1.79,17.52,17.52,0,0,0,3.31-4.54,20.41,20.41,0,0,0,2.17-5.45,11.08,11.08,0,0,0,.13-4.22,8.07,8.07,0,0,0-1.35-3.25,13.89,13.89,0,0,0-2.32-2.52q-3-2.51-6-4.95-5.64,10.28-11.27,20.57C421.16,347.13,423.25,348.6,425.33,350.08Z"/><path class="cls-1" d="M467.67,343.7,454.4,367.93A255.09,255.09,0,0,1,480,357.44q4.27,4.94,8.47,10a205.45,205.45,0,0,0-24.12,7.73q-1.93,23.46-2.55,44.46-5-3.63-10.14-7.1,1-15.9,2.78-33.07-4.2,1.81-8.52,3.84-5.16,9.4-10.31,18.83-4.18-2.58-8.42-5.06l33.33-60.85Q464.15,339.92,467.67,343.7Z"/><path class="cls-1" d="M499,380.52l-21.18,38.66q8.43,7.21,16.59,14.88l-4.26,7.79Q477.88,431.42,465.05,422l27.3-49.83Q495.68,376.3,499,380.52Z"/><path class="cls-1" d="M530.48,425.59q-4.62,25.67-7.19,47.53-3.66-3.81-7.39-7.51.83-5,1.74-10.14-5.89-6.47-12-12.66-3.63,3-7.38,6.21-3.75-3.36-7.58-6.63,18-15.37,33.59-26.35Q527.43,420.77,530.48,425.59ZM519,447.72q1.6-8.73,3.46-18l-.08-.11q-5.55,4.14-11.42,8.83Q515,443,519,447.72Z"/><path class="cls-1" d="M535.23,474.71a10.36,10.36,0,0,0,.58,3.38,17.49,17.49,0,0,0,1.64,3.47,29.39,29.39,0,0,0,2.38,3.35c.59.72,1.24,1.45,2,2.19a14.26,14.26,0,0,0,2.13,1.87,4.84,4.84,0,0,0,2,.9,1.26,1.26,0,0,0,1.39-.76,3.62,3.62,0,0,0,.14-2.61,21.09,21.09,0,0,0-1.36-3.73q-1-2.08-2.29-4.52t-2.66-5c-.93-1.72-1.8-3.48-2.6-5.26a34.72,34.72,0,0,1-1.89-5.29,18.29,18.29,0,0,1-.6-5.13,10,10,0,0,1,1.23-4.62,4.63,4.63,0,0,1,3.12-2.69,5.46,5.46,0,0,1,3.82.94,16.23,16.23,0,0,1,4,3.8,40.12,40.12,0,0,1,3.64,5.66,73.52,73.52,0,0,1,3.47,7.42,52.82,52.82,0,0,1,2.4,7.32,29.41,29.41,0,0,1,.93,6.39,9.37,9.37,0,0,1-1,4.79q-2.75-4.69-5.54-9.31a6.43,6.43,0,0,0,.51-2.65,11.73,11.73,0,0,0-.47-3,21.45,21.45,0,0,0-1.24-3.31q-.78-1.71-1.83-3.51a22.51,22.51,0,0,0-1.46-2.19A7.34,7.34,0,0,0,546,461a2.59,2.59,0,0,0-1.48-.56q-.69,0-1.2.9a3.55,3.55,0,0,0-.43,1.82,9.39,9.39,0,0,0,.69,2.78c.44,1.2,1.12,2.75,2,4.64s2.1,4.35,3.57,7.37c.46.87,1.07,2.13,1.83,3.76a44.66,44.66,0,0,1,2.06,5.24,28.33,28.33,0,0,1,1.23,5.47,7.29,7.29,0,0,1-.67,4.49,3.24,3.24,0,0,1-2.3,1.76,6.05,6.05,0,0,1-3.57-.69,23.09,23.09,0,0,1-4.78-3.15,53.25,53.25,0,0,1-5.86-5.74,51,51,0,0,1-4.7-6.1,29.48,29.48,0,0,1-3.29-6.57,19.19,19.19,0,0,1-1.12-6.64,12.61,12.61,0,0,1,1.67-6.14q3.19,3.94,6.34,8A6.38,6.38,0,0,0,535.23,474.71Z"/><path class="cls-6" d="M92.48,658.8H208.61v30.53h-39v93.11h-38.2V689.33h-39Z"/><path class="cls-6" d="M215.19,720.71q0-30.29,16.87-47.15t47-16.86q30.87,0,47.56,16.57t16.7,46.42q0,21.67-7.29,35.55a52,52,0,0,1-21.09,21.59q-13.79,7.71-34.36,7.72-20.93,0-34.62-6.67T223.71,756.8Q215.19,742.39,215.19,720.71Zm38.2.16q0,18.74,7,26.91T279.28,756q12.32,0,19.06-8t6.75-28.76q0-17.46-7-25.51T279,685.62q-11.56,0-18.56,8.18T253.39,720.87Z"/><path class="cls-6" d="M363.7,658.8h63.5q20.74,0,31.08,9.87t10.33,28.08q0,18.74-11.26,29.27T423,736.56H402.07v45.88H363.7Zm38.37,52.71h9.36q11.06,0,15.52-3.83a12.38,12.38,0,0,0,4.47-9.83,13.72,13.72,0,0,0-3.88-9.87q-3.89-4-14.59-4H402.07Z"/><path class="cls-6" d="M488.77,658.8H527v46.73l40-46.73H617.8l-45.12,46.67,47.14,77h-47l-26.07-50.85L527,752.27v30.17h-38.2Z"/><path class="cls-6" d="M632.47,658.8h38.2V752H730.3v30.45H632.47Z"/><path class="cls-6" d="M823.68,762H780.31l-6,20.41h-39L781.74,658.8h41.67l46.46,123.64h-40Zm-7.92-26.73-13.65-44.45-13.5,44.45Z"/><path class="cls-6" d="M875.35,741.54l36.35-2.28q1.18,8.85,4.81,13.49,5.9,7.51,16.86,7.51,8.19,0,12.61-3.84t4.43-8.9q0-4.8-4.22-8.6t-19.56-7.17q-25.14-5.64-35.84-15A30.17,30.17,0,0,1,880,692.88a32.43,32.43,0,0,1,5.52-18q5.54-8.48,16.62-13.32t30.4-4.85q23.7,0,36.14,8.81t14.8,28l-36,2.11q-1.44-8.35-6-12.15t-12.69-3.79q-6.68,0-10,2.82a8.67,8.67,0,0,0-3.37,6.88,6.85,6.85,0,0,0,2.78,5.31q2.7,2.44,12.82,4.55,25.05,5.4,35.88,10.93t15.77,13.7a34.72,34.72,0,0,1,4.94,18.3,39.24,39.24,0,0,1-6.58,21.93,41.22,41.22,0,0,1-18.39,15.22q-11.81,5.19-29.77,5.19-31.53,0-43.68-12.15T875.35,741.54Z"/><path class="cls-1" d="M103.67,825.21h6.13v33.4h10.07v5.56h-16.2Z"/><path class="cls-1" d="M136.18,825.21h16.7v5.57H142.3v10.29h8.41v5.57H142.3v12h10.58v5.56h-16.7Z"/><path class="cls-1" d="M174.47,825.21h8.29l6.35,39H183l-1.12-7.74v.12h-7l-1.12,7.62h-5.67Zm6.68,26L178.42,832h-.11l-2.67,19.26Z"/><path class="cls-1" d="M205.42,825.21h9.07q4.72,0,6.9,2.2c1.45,1.46,2.17,3.72,2.17,6.76v2.39c0,4.05-1.33,6.61-4,7.69v.11a4.75,4.75,0,0,1,3.15,2.72,13.79,13.79,0,0,1,.92,5.51v6.85a24.77,24.77,0,0,0,.11,2.7,6.82,6.82,0,0,0,.55,2h-6.23a8.71,8.71,0,0,1-.44-1.78,25,25,0,0,1-.12-3v-7.12a6,6,0,0,0-.86-3.73,3.66,3.66,0,0,0-3-1.06h-2.11v16.7h-6.12Zm8.35,16.7a3.67,3.67,0,0,0,2.75-.95,4.48,4.48,0,0,0,.92-3.17v-3a5,5,0,0,0-.75-3.06,2.84,2.84,0,0,0-2.37-.94h-2.78v11.13Z"/><path class="cls-1" d="M241.2,825.21h7.68l6,23.32H255V825.21h5.46v39h-6.29l-7.35-28.44h-.11v28.44H241.2Z"/><path class="cls-1" d="M278.33,825.21h6.12v39h-6.12Z"/><path class="cls-1" d="M302.37,825.21h7.68l6,23.32h.11V825.21h5.45v39h-6.29l-7.34-28.44h-.11v28.44h-5.46Z"/><path class="cls-1" d="M341.39,862.2q-2.34-2.54-2.34-7.27V834.45c0-3.15.78-5.58,2.34-7.26s3.82-2.54,6.79-2.54,5.23.85,6.79,2.54,2.33,4.11,2.33,7.26v3.34h-5.78v-3.73q0-3.84-3.18-3.84t-3.17,3.84v21.32q0,3.78,3.17,3.78t3.18-3.78v-7.63h-3.06v-5.56h8.84v12.74c0,3.16-.77,5.58-2.33,7.27s-3.83,2.53-6.79,2.53S343,863.88,341.39,862.2Z"/><path class="cls-1" d="M396.88,825.21h9.24q4.72,0,6.9,2.2c1.44,1.46,2.17,3.72,2.17,6.76v1.56a10.7,10.7,0,0,1-1,4.9,5.68,5.68,0,0,1-3,2.72v.12q4.56,1.56,4.56,8.12v3.34q0,4.52-2.37,6.88t-6.92,2.36h-9.63Zm8.51,15.86a3.68,3.68,0,0,0,2.76-.94,4.49,4.49,0,0,0,.92-3.18v-2.17a4.88,4.88,0,0,0-.76-3.06,2.83,2.83,0,0,0-2.36-.94H403v10.29Zm1.12,17.54a3.06,3.06,0,0,0,2.39-.87,4.42,4.42,0,0,0,.78-3v-3.39a5.66,5.66,0,0,0-.92-3.7,3.87,3.87,0,0,0-3-1H403v12Z"/><path class="cls-1" d="M432.72,825.21h16.7v5.57H438.84v10.29h8.41v5.57h-8.41v12h10.58v5.56h-16.7Z"/><path class="cls-1" d="M471.9,847.58l-7.4-22.37H471l4.18,14.3h.11l4.17-14.3h6L478,847.58v16.59H471.9Z"/><path class="cls-1" d="M502.52,862.17q-2.4-2.56-2.4-7.24V834.45q0-4.68,2.4-7.24c1.59-1.7,3.89-2.56,6.9-2.56s5.3.86,6.9,2.56,2.39,4.12,2.39,7.24v20.48q0,4.68-2.39,7.24c-1.6,1.7-3.9,2.56-6.9,2.56S504.11,863.87,502.52,862.17Zm10.07-6.85V834.06q0-3.84-3.17-3.84t-3.18,3.84v21.26q0,3.84,3.18,3.84T512.59,855.32Z"/><path class="cls-1" d="M536.19,825.21h7.68l6,23.32h.12V825.21h5.45v39H549.1l-7.35-28.44h-.11v28.44h-5.45Z"/><path class="cls-1" d="M573.31,825.21h9.35c3,0,5.33.82,6.85,2.45s2.28,4,2.28,7.18v19.7q0,4.74-2.28,7.18c-1.52,1.63-3.81,2.45-6.85,2.45h-9.35Zm9.24,33.4a3,3,0,0,0,2.31-.9,4.21,4.21,0,0,0,.81-2.89V834.56a4.23,4.23,0,0,0-.81-2.89,2.94,2.94,0,0,0-2.31-.89h-3.12v27.83Z"/><path class="cls-1" d="M631.53,825.21h6.12v39h-6.12Z"/><path class="cls-1" d="M655.57,825.21h8.74l3.9,27.88h.11l3.89-27.88H681v39h-5.79v-29.5h-.11l-4.45,29.5h-5.12L661,834.67h-.12v29.5h-5.34Z"/><path class="cls-1" d="M703.6,825.21h8.3l6.34,39h-6.12L711,856.43v.12h-7l-1.11,7.62h-5.68Zm6.68,26L707.56,832h-.12l-2.67,19.26Z"/><path class="cls-1" d="M736.33,862.2q-2.34-2.54-2.34-7.27V834.45c0-3.15.78-5.58,2.34-7.26s3.82-2.54,6.79-2.54,5.23.85,6.79,2.54,2.34,4.11,2.34,7.26v3.34h-5.79v-3.73q0-3.84-3.17-3.84c-2.12,0-3.17,1.28-3.17,3.84v21.32c0,2.52,1,3.78,3.17,3.78s3.17-1.26,3.17-3.78v-7.63H743.4v-5.56h8.85v12.74q0,4.74-2.34,7.27c-1.56,1.68-3.82,2.53-6.79,2.53S737.89,863.88,736.33,862.2Z"/><path class="cls-1" d="M769.56,825.21h6.12v39h-6.12Z"/><path class="cls-1" d="M793.6,825.21h7.68l6,23.32h.11V825.21h5.45v39h-6.29l-7.34-28.44h-.11v28.44H793.6Z"/><path class="cls-1" d="M835.46,825.21h8.29l6.34,39H844l-1.11-7.74v.12h-7l-1.11,7.62h-5.68Zm6.67,26L839.41,832h-.11l-2.68,19.26Z"/><path class="cls-1" d="M868.63,830.78h-6.4v-5.57h18.92v5.57h-6.4v33.39h-6.12Z"/><path class="cls-1" d="M897.46,825.21h6.12v39h-6.12Z"/><path class="cls-1" d="M923.45,862.17c-1.6-1.71-2.39-4.12-2.39-7.24V834.45c0-3.12.79-5.53,2.39-7.24s3.9-2.56,6.9-2.56,5.31.86,6.9,2.56,2.4,4.12,2.4,7.24v20.48q0,4.68-2.4,7.24c-1.59,1.7-3.89,2.56-6.9,2.56S925,863.87,923.45,862.17Zm10.07-6.85V834.06c0-2.56-1-3.84-3.17-3.84s-3.17,1.28-3.17,3.84v21.26q0,3.84,3.17,3.84C932.47,859.16,933.52,857.88,933.52,855.32Z"/><path class="cls-1" d="M957.12,825.21h7.68l6,23.32h.11V825.21h5.46v39H970l-7.35-28.44h-.11v28.44h-5.46Z"/><path class="cls-7" d="M92.48,646.85l9.21-.58a7,7,0,0,0,1.22,3.42,5.11,5.11,0,0,0,4.27,1.9,4.73,4.73,0,0,0,3.2-1,2.8,2.8,0,0,0,.05-4.44q-1.07-1-5-1.81-6.36-1.44-9.08-3.8a7.67,7.67,0,0,1-2.73-6.05,8.23,8.23,0,0,1,1.4-4.56,9.26,9.26,0,0,1,4.21-3.38,19.61,19.61,0,0,1,7.7-1.23q6,0,9.16,2.24t3.74,7.1l-9.12.53a4.26,4.26,0,0,0-4.74-4,3.91,3.91,0,0,0-2.54.71,2.21,2.21,0,0,0-.86,1.74,1.76,1.76,0,0,0,.71,1.35,7.81,7.81,0,0,0,3.24,1.15,40.66,40.66,0,0,1,9.09,2.77,9.48,9.48,0,0,1,4,3.47A8.84,8.84,0,0,1,120.9,647a9.91,9.91,0,0,1-1.67,5.55,10.42,10.42,0,0,1-4.65,3.86,18.79,18.79,0,0,1-7.55,1.31q-8,0-11.06-3.07A12.15,12.15,0,0,1,92.48,646.85Z"/><path class="cls-7" d="M124.08,646.85l9.21-.58a7,7,0,0,0,1.22,3.42,5.11,5.11,0,0,0,4.27,1.9,4.74,4.74,0,0,0,3.2-1,2.8,2.8,0,0,0,.05-4.44q-1.07-1-5-1.81-6.36-1.44-9.08-3.8a7.67,7.67,0,0,1-2.73-6.05,8.23,8.23,0,0,1,1.4-4.56,9.26,9.26,0,0,1,4.21-3.38,19.61,19.61,0,0,1,7.7-1.23q6,0,9.15,2.24t3.75,7.1l-9.12.53a4.26,4.26,0,0,0-4.74-4,3.91,3.91,0,0,0-2.54.71,2.21,2.21,0,0,0-.86,1.74,1.76,1.76,0,0,0,.71,1.35,7.81,7.81,0,0,0,3.24,1.15,40.66,40.66,0,0,1,9.09,2.77,9.54,9.54,0,0,1,4,3.47A8.84,8.84,0,0,1,152.5,647a9.91,9.91,0,0,1-1.67,5.55,10.42,10.42,0,0,1-4.65,3.86,18.79,18.79,0,0,1-7.55,1.31q-8,0-11.06-3.07A12.15,12.15,0,0,1,124.08,646.85Z"/></svg>